<svg xmlns="http://www.w3.org/2000/svg" width="212" height="38" fill="none"><path fill="#292522" stroke="null" d="m129.5 37 1.7-6.7h4.3l-.3 1.1h-3l-1.5 5.5h-1.2zm-1.9 0h-1.2l.7-2.9h-3l-.8 2.8h-1.2l1.7-6.6h1.3l-.8 2.7h3l.8-2.7h1.2l-1.7 6.6zm-8.6 0 1-3.9.2-.8.1-.4.1-.5-3.8 5.5h-2l1.8-6.6h1.2l-1 3.8-.2.9-.1.4-.2.4 4-5.5h1.8l-1.7 6.6H119zm-7.5-3.3c.9 0 1.1 0 1.4-.4l.3-1.3c0-.5 0-.6-1-.6h-1.5l-.6 2.3h1.4zm-1.7-3.4h2.6c1 0 1.2 0 1.5.2.5.1.7.6.7 1a7 7 0 0 1-.5 2 2 2 0 0 1-1.8 1.3h-2.5l-.5 2.1H108l1.8-6.6zm-4.9 6.6 1-3.8.2-.8.2-.4.1-.5-3.9 5.5h-1.9l1.7-6.6h1.3l-1 3.8-.3.9v.4l-.2.4 3.9-5.5h1.9l-1.7 6.6h-1.3zm-6.1 0h-1.3l.7-2.8h-3l-.7 2.8h-1.3l1.7-6.6h1.3l-.7 2.7h3l.7-2.7h1.3L98.8 37zM90 37l1-3.8.2-.8.2-.4.1-.5-3.9 5.5h-1.9l1.7-6.6h1.3l-1 3.8-.3.9v.4l-.2.4 3.9-5.5H93L91.3 37h-1.2zm-10.9 0 .8-2.8h-.6L76.7 37H75l3.4-3.3-1.4-3.3h1.6l1 2.7h.6l.7-2.7h1.2l-.7 2.7h.5l2.5-2.7H86l-3 3.3 1.6 3.3H83l-1.3-2.8h-.5l-.7 2.8h-1.3zM74 37h-1.3l.8-2.8h-3l-.8 2.8h-1.3l1.8-6.6h1.2l-.7 2.7h3l.7-2.7h1.3L73.9 37zm-8.7 0 1-3.8.2-.8.2-.4.1-.5-3.9 5.5H61l1.8-6.6h1.2l-1 3.8-.3.9v.4l-.2.4 3.9-5.5h1.9L66.5 37h-1.3z"/><g fill="#292522" stroke="null"><path d="M203.3 10.4c1.1 0 1.4 0 1.7-.2.4-.4.8-.9 1.3-3 .5-2 .3-2.5 0-2.8 0-.1-.4-.2-1.5-.2h-4.4l-1.5 6.2h4.4zm4.7 3c-.9.6-2 .8-3.7.8h-6.4l-1.7 7.2h-4.9l5.2-21h11.2c1.7 0 2.7.2 3.3.8.7.9 1.2 2.2.3 6.1-1 3.8-2.2 5.2-3.3 6m-32 4c.2 0 .5.2 1.4.2h4c1 0 1.2-.1 1.5-.3.3-.3.9-1 2.2-6.3 1.3-5.4 1-6.1.9-6.4-.2-.2-.4-.3-1.4-.3h-3.9c-1 0-1.3.1-1.5.3-.3.3-1 1-2.2 6.4-1.4 5.3-1.1 6-1 6.3zm10.8-17c2 0 3 .4 3.5 1 1 1.2 1.3 3.1-.3 9.6-1.6 6.4-2.9 8.3-4.3 9.5-1 .7-2 1-4 1h-6.5c-2 0-2.9-.3-3.5-1-.9-1.2-1.3-3.1.3-9.5 1.6-6.5 3-8.4 4.4-9.5 1-.7 2-1 4-1h6.4z"/><path fill-rule="evenodd" d="M157.2 5.9 156 9.4c-1 3.6-2.1 6.5-3.8 8.1h8.7l3.3-13.4h-5.8c-.6 0-.9.3-1 .8l-.3 1zM149 21.4l-.7 2.7h-4.4l1.6-6.6h.7a1.9 2 0 0 0 .8-.2c3-2.4 3.9-5.5 4.9-8.8l.1-.5.3-1 1.4-4.2c.5-1.5.8-2.4 3-2.4h13.4L166 17.5h2.2l-1.6 6.6h-4.3l.6-2.7H149z" clip-rule="evenodd"/><path d="M131.3 17.2c.2.2.5.3 1.4.3h4c1 0 1.2-.1 1.4-.3.4-.3 1-1 2.3-6.3 1.3-5.4 1-6.1.9-6.4-.2-.2-.4-.3-1.4-.3h-4c-.9 0-1.2.1-1.4.3-.4.3-1 1-2.2 6.4-1.4 5.3-1.2 6-1 6.3zM142.1.4c2 0 3 .3 3.5 1 1 1 1.3 3-.3 9.5-1.6 6.4-3 8.3-4.4 9.5-.9.7-1.9 1-4 1h-6.4c-2 0-3-.3-3.5-1-1-1.2-1.3-3.1.3-9.5 1.6-6.5 3-8.4 4.4-9.5 1-.7 2-1 4-1h6.4zm-21 3.9-4.2 17h-4.8l4.2-17H110l1-4H128l-1 4h-6zM100.5 9c.7 0 1 0 1.2-.2.3-.3.7-1 1-2.4.3-1.3.3-2 .1-2.1-.1-.2-.4-.3-1.2-.3h-5.4l-1.2 5h5.5zm.4 3.7c-.1-.2-.4-.3-1.2-.3H94l-1.3 5.1h5.6c.8 0 1 0 1.3-.2.3-.3.6-.5 1-2.3.5-1.8.4-2 .2-2.3zM92.1.4h12c1.6 0 2.7.3 3.3 1 .7.9.9 2.3.3 4.6-.8 3-2.2 4.2-4.5 4.8 2.3.5 3.1 1.5 2.3 4.8-.7 2.8-1.5 3.8-2.6 4.7-1 .7-2.4 1-4 1H87l5.2-21zM73 10l1.1-4.4c.4-1.5 1.5-1.6 2.5-1.6h5.5l-1.7 6H73zM77.4.4c-5.6 0-7 1-8.6 7l-3.6 14h5l1.9-7.6h7.4l-1.8 7.6h4.9l5.2-21H77.4z"/></g><g fill="#F14B1C" stroke="null"><path d="M60.3 18.8a23.2 23.2 0 0 0-14.6 18.6.5.5 0 0 0 .5.6H52a4.4 4.5 0 0 0 4.3-3.4l3.9-15.8z"/><path d="M23.7 37.3a.5.5 0 0 0 .4.7h12.3c.3 0 .7-.3.8-.6A29.9 29.9 0 0 1 60.4 16a1 1 0 0 0 .8-.7l.7-2.8a42.4 42.4 0 0 0-38.2 24.8z"/><path d="M2.4 26.2.4 34c-.5 2 1 4 3.1 4h9.2a1.1 1.1 0 0 0 1-.6c7.8-16 24-26.6 48.2-27.7a1 1 0 0 0 .9-.7l.6-2.6c-25.7.2-44.7 6.4-60 18a3 3 0 0 0-1 1.8z"/><path d="m64 2.8.6-2.5H12.4a5 5 0 0 0-4.8 3.8l-2.3 9a.8.8 0 0 0 1 1A144.2 144.2 0 0 1 63.2 3.4a1 1 0 0 0 1-.7z"/></g></svg>
