<svg width="135" height="23" xmlns="http://www.w3.org/2000/svg" fill="none">
 <g>
  <title>Layer 1</title>
  <g stroke="null" id="svg_10">
   <path stroke="null" id="svg_1" fill="#292522" d="m69.07121,22.26657l0.9129,-3.61018l2.26454,0l-0.15371,0.60662l-1.60488,0l-0.75867,3.00409l-0.66018,0l0,-0.00054zm-0.98064,0l-0.66018,0l0.39184,-1.54205l-1.59445,0l-0.39131,1.54259l-0.66071,0l0.9129,-3.61072l0.66071,0l-0.37308,1.47793l1.59445,0l0.37256,-1.47793l0.66018,0l-0.9129,3.61072l0,-0.00054l-0.00001,0zm-4.54992,0l0.52731,-2.07799c0.05158,-0.21098 0.10837,-0.41648 0.12088,-0.4658l0.06826,-0.23235l0.06826,-0.23289l-0.02553,0l-2.01234,3.00957l-1.00618,0l0.9129,-3.61072l0.64456,0l-0.52054,2.0736c-0.05315,0.21646 -0.10942,0.42195 -0.12766,0.47127l-0.06878,0.23782l-0.06305,0.23235l0.02084,0l2.0186,-3.01505l1.01087,0l-0.9129,3.61072l-0.6555,0l0,-0.00054l0.00002,0l-0.00001,0.00001zm-3.90953,-1.7585c0.44394,0 0.58046,-0.04877 0.69874,-0.24385c0.07294,-0.1244 0.18706,-0.54142 0.19593,-0.72006c0.01303,-0.26522 -0.06149,-0.314 -0.50543,-0.314l-0.81025,0l-0.32202,1.27791l0.74303,0zm-0.93374,-1.85166l1.39228,0c0.56796,0 0.63466,0.00603 0.79618,0.07123c0.23292,0.097 0.35588,0.31893 0.34129,0.61649c-0.01303,0.25427 -0.11724,0.68773 -0.23656,1.00666c-0.17091,0.4384 -0.5148,0.7091 -0.94417,0.73651c-0.07816,0.00548 -0.16101,0.01096 -0.53774,0.01644l-0.76857,0l-0.29596,1.16339l-0.66018,0l0.91343,-3.61072l0.00001,0l-0.00001,0zm-2.54852,3.61018l0.52679,-2.07799c0.05211,-0.21098 0.1089,-0.41648 0.12141,-0.4658l0.06826,-0.23235l0.06826,-0.23289l-0.02606,0l-2.01234,3.00957l-1.00618,0l0.9129,-3.61072l0.64456,0l-0.52054,2.0736c-0.05263,0.21646 -0.1089,0.42195 -0.12766,0.47127l-0.06826,0.23782l-0.06305,0.23235l0.02084,0l2.01808,-3.01505l1.01138,0l-0.91343,3.61072l-0.65497,0l0,-0.00054l0.00002,0l-0.00001,0.00001zm-3.23997,0l-0.66018,0l0.39184,-1.54205l-1.59445,0l-0.39184,1.54259l-0.66018,0l0.9129,-3.61072l0.66018,0l-0.37256,1.47793l1.59393,0l0.37256,-1.47793l0.66071,0l-0.9129,3.61072l0,-0.00054l-0.00001,0zm-4.54992,0l0.52679,-2.07799c0.05211,-0.21098 0.1089,-0.41648 0.12141,-0.4658l0.06826,-0.23235l0.06826,-0.23289l-0.02553,0l-2.01234,3.00957l-1.00618,0l0.9129,-3.61072l0.64456,0l-0.52107,2.0736c-0.05211,0.21646 -0.1089,0.42195 -0.12715,0.47127l-0.06878,0.23782l-0.06253,0.23235l0.02032,0l2.01808,-3.01505l1.01138,0l-0.91343,3.61072l-0.65497,0l0,-0.00054l0.00002,0l-0.00002,0.00001zm-5.71972,0l0.39131,-1.54205l-0.28919,0l-1.43866,1.54259l-0.83058,0l1.79506,-1.84564l-0.73783,-1.76454l0.80453,0l0.56118,1.4719l0.28399,0l0.37308,-1.47246l0.63935,0l-0.36735,1.47246l0.27825,0l1.30735,-1.47246l0.80401,0l-1.62519,1.76454l0.86236,1.84619l-0.83058,0l-0.66592,-1.54259l-0.2845,0l-0.38611,1.54259l-0.64456,0l0,-0.00054zm-2.82572,0l-0.66018,0l0.39131,-1.54205l-1.59393,0l-0.39184,1.54259l-0.66018,0l0.91238,-3.61072l0.66071,0l-0.37256,1.47793l1.59393,0l0.37308,-1.47793l0.66071,0l-0.91343,3.61072l0,-0.00054zm-4.54992,0l0.52679,-2.07799c0.05211,-0.21098 0.1089,-0.41648 0.12141,-0.4658l0.06773,-0.23235l0.06878,-0.23289l-0.02606,0l-2.01234,3.00957l-1.00566,0l0.91238,-3.61072l0.64508,0l-0.52107,2.0736c-0.05263,0.21646 -0.1089,0.42195 -0.12766,0.47127l-0.06826,0.23782l-0.06305,0.23235l0.02084,0l2.01808,-3.01505l1.01087,0l-0.9129,3.61072l-0.65497,0l0,-0.00054l0.00002,0l0,0.00001z"/>
   <g stroke="null" id="svg_2" fill="#292522">
    <path stroke="null" id="svg_3" d="m127.89805,7.18674c0.73846,0 0.95734,-0.03948 1.13705,-0.15704c0.25978,-0.19651 0.53915,-0.55006 0.87814,-1.88531c0.33942,-1.33482 0.22019,-1.66863 0.06005,-1.84498c-0.09965,-0.11799 -0.31941,-0.1772 -1.05741,-0.1772l-2.98645,0l-1.01782,4.06454l2.98645,0l0,0zm3.15311,1.94366c-0.57875,0.41276 -1.37726,0.56937 -2.51474,0.56937l-4.26318,0l-1.17752,4.67295l-3.2532,0l3.47208,-13.74425l7.51638,0c1.13792,0 1.85636,0.1373 2.23538,0.54964c0.49912,0.56981 0.83853,1.45324 0.18015,4.00618c-0.61922,2.49287 -1.43687,3.39648 -2.19535,3.94611m-21.46604,2.51303c0.11923,0.11799 0.27937,0.17677 0.91773,0.17677l2.65399,0c0.6388,0.01973 0.8381,-0.05878 0.9978,-0.17677c0.21975,-0.17634 0.61878,-0.66763 1.49692,-4.14306c0.87814,-3.49431 0.73846,-3.98602 0.59877,-4.14263c-0.09965,-0.1373 -0.25935,-0.19651 -0.89816,-0.19651l-2.65442,0c-0.6388,0 -0.83767,0.05921 -1.01695,0.19651c-0.22019,0.15661 -0.5992,0.64789 -1.47735,4.14263c-0.89771,3.49474 -0.75804,3.96671 -0.61836,4.14306l0,0l0.00002,0zm7.24398,-11.01497c1.37726,0 1.97559,0.19651 2.35505,0.6672c0.59877,0.72683 0.85768,1.98357 -0.19973,6.20472c-1.07787,4.20227 -1.97559,5.45857 -2.95337,6.20515c-0.61878,0.47068 -1.29762,0.6672 -2.67444,0.6672l-4.33063,0c-1.37682,0 -1.97559,-0.19651 -2.3546,-0.66763c-0.61878,-0.74615 -0.87857,-2.00245 0.19931,-6.20428c1.05785,-4.22158 1.95601,-5.4783 2.95337,-6.20515c0.61878,-0.47068 1.29719,-0.6672 2.67444,-0.6672l4.33063,0l0,0l-0.00002,0z"/>
    <path stroke="null" id="svg_4" d="m96.8752,4.22534c-0.17015,0.52732 -0.38206,1.18337 -0.7167,2.28262c-0.71583,2.35214 -1.41946,4.25418 -2.56392,5.33286l5.89457,0l2.18272,-8.7628l-3.88677,0c-0.40818,0 -0.61313,0.21582 -0.71061,0.52561c-0.0631,0.19994 -0.1275,0.39946 -0.19931,0.62172l0,0l0.00002,0zm-5.45376,10.14783l-0.51174,1.79349l-2.93162,0l1.08484,-4.32584l0.46213,0a1.27412,1.25631 0 0 0 0.53262,-0.14245c1.9869,-1.58326 2.60003,-3.57541 3.26538,-5.73618l0.11401,-0.37029l0.17363,-0.56208c0.25065,-0.81565 0.53132,-1.72914 0.90903,-2.8151c0.33463,-0.96411 0.56309,-1.5854 2.07872,-1.5854l8.99632,0l-2.83284,11.21148l1.48517,0l-1.1166,4.32626l-2.85547,0l0.40904,-1.79349l-9.26264,0l0,-0.00043l0.00001,0l0,0.00002z" clip-rule="evenodd" fill-rule="evenodd"/>
    <path stroke="null" id="svg_5" d="m79.52048,11.64345c0.11966,0.11799 0.2798,0.17677 0.91817,0.17677l2.65399,0c0.63924,0.01973 0.83897,-0.05878 0.99867,-0.17677c0.21932,-0.17634 0.61836,-0.66763 1.49648,-4.14306c0.87814,-3.49431 0.73846,-3.98602 0.59877,-4.14263c-0.10009,-0.1373 -0.25978,-0.19651 -0.89816,-0.19651l-2.65442,0c-0.63837,0 -0.83767,0.05921 -1.01782,0.19651c-0.21932,0.15661 -0.59877,0.64789 -1.47647,4.14263c-0.89816,3.49474 -0.7589,3.96671 -0.61922,4.14306l0,0l0.00001,0zm7.24484,-11.01497c1.37682,0 1.97559,0.19651 2.3546,0.6672c0.59877,0.72683 0.85812,1.98357 -0.19973,6.20472c-1.07743,4.20227 -1.97559,5.45857 -2.95337,6.20515c-0.61922,0.47068 -1.29719,0.6672 -2.67401,0.6672l-4.33063,0c-1.37682,0 -1.97559,-0.19651 -2.35505,-0.66763c-0.61836,-0.74615 -0.87814,-2.00245 0.19973,-6.20428c1.05741,-4.22158 1.95557,-5.4783 2.95294,-6.20515c0.61878,-0.47068 1.29762,-0.6672 2.67488,-0.6672l4.33063,0l0,0l0.00001,0zm-14.09196,2.55295l-2.83371,11.19132l-3.2532,0l2.83371,-11.19132l-4.251,0l0.6388,-2.55295l11.54414,0l-0.63837,2.55295l-4.04038,0l0,0zm-13.9823,3.14162c0.51914,0 0.6784,-0.01973 0.83853,-0.13773c0.21932,-0.17677 0.43863,-0.56937 0.6784,-1.51202c0.21932,-0.90318 0.17971,-1.27604 0.05961,-1.43351c-0.09965,-0.09826 -0.25935,-0.15704 -0.79807,-0.15704l-3.67616,0l-0.79459,3.2403l3.69227,0l0.00001,0zm0.31941,2.43452c-0.11966,-0.11799 -0.27937,-0.17634 -0.79851,-0.17634l-3.79148,0l-0.84637,3.31754l3.75971,0c0.49912,0 0.69885,-0.01931 0.87814,-0.15704c0.19973,-0.15704 0.39947,-0.31408 0.67884,-1.45281c0.29939,-1.17821 0.23934,-1.35457 0.11966,-1.53134l0,0l0.00001,-0.00001zm-5.86758,-8.12908l8.00288,0c1.1575,0 1.89552,0.19651 2.27497,0.66763c0.45908,0.58911 0.57875,1.49229 0.17971,3.02405c-0.49912,1.96297 -1.43687,2.76833 -2.99341,3.12189l-0.02002,0.03948c1.53652,0.31408 2.09526,0.94223 1.53652,3.12189c-0.45865,1.80637 -1.01782,2.47357 -1.75628,3.04293c-0.65839,0.49085 -1.55654,0.72641 -2.65399,0.72641l-8.04248,0l3.47208,-13.74425l0.00001,0l0.00001,-0.00002zm-12.84786,6.38921c0.37685,-1.45153 0.68145,-2.62159 0.7576,-2.90777c0.26501,-0.989 1.02435,-1.03233 1.69448,-1.03233l3.63395,0l-1.07614,3.94011l-5.0099,0l0,0zm2.98601,-6.38878c-3.76233,0 -4.78537,0.63544 -5.83452,4.6618l-2.36679,9.08203l3.30889,0l1.27979,-4.94026l5.02556,0l-1.24932,4.94026l3.30367,0l3.47556,-13.74425l-6.94285,0l0,0.00043l0.00001,0l0,-0.00001z"/>
   </g>
   <g stroke="null" id="svg_11">
    <path stroke="null" id="svg_6" fill="#F14B1C" d="m32.42977,11.31512c-3.98589,1.52219 -7.13704,5.7157 -7.88295,10.95547a0.27176,0.29969 0 0 0 0.26851,0.34264l3.19131,0a2.38497,2.63017 0 0 0 2.31479,-1.99052l2.10834,-9.30758l0,-0.00001z"/>
    <path stroke="null" id="svg_7" fill="#F14B1C" d="m12.69542,22.19633a0.27256,0.30059 0 0 0 0.24945,0.41689l6.6057,0c0.19753,0 0.36829,-0.14403 0.42467,-0.35248c1.67434,-6.17597 5.95673,-11.12052 12.52024,-12.59529a0.51918,0.57255 0 0 0 0.40277,-0.41913l0.3764,-1.65459c-8.42443,0.44418 -16.82616,5.03937 -20.57923,14.6046z"/>
    <path stroke="null" id="svg_8" fill="#F14B1C" d="m1.23219,15.63745l-1.0416,4.63501c-0.2673,1.18984 0.55081,2.34031 1.6646,2.34031l4.96624,0a0.59218,0.65307 0 0 0 0.53134,-0.36858c4.19518,-9.43461 12.86987,-15.65756 25.91822,-16.3151a0.5204,0.57389 0 0 0 0.48348,-0.43299l0.34517,-1.54813c-13.84049,0.16416 -24.06459,3.82449 -32.26757,10.67857a1.64594,1.81518 0 0 0 -0.59989,1.01046l0,0.00044l0,0.00001z"/>
    <path stroke="null" id="svg_9" fill="#F14B1C" d="m34.4282,1.81564l0.32976,-1.4287l-28.12107,0a2.68268,2.9585 0 0 0 -2.6048,2.2428l-1.20059,5.32968c-0.08315,0.36768 0.25148,0.67543 0.56744,0.52245c8.35183,-4.0535 19.01926,-6.18179 30.52184,-6.2319a0.52485,0.57881 0 0 0 0.50741,-0.43434l0,0.00001z"/>
   </g>
  </g>
 </g>

</svg>
